<svg height="512pt" viewBox="-29 0 511 512" width="512pt" xmlns="http://www.w3.org/2000/svg"><path d="m450.617188 371.898438c.320312 37.03125-13.960938 71.992187-40.199219 98.460937-26.628907 26.851563-62.128907 41.640625-99.960938 41.640625h-115.738281c-46.703125 0-90.050781-22.960938-115.960938-61.421875-25.199218-37.386719-49.351562-100.789063-21.339843-190.4375l4.660156-14.902344 86.070313 30.742188c-1.480469-19.601563-1.761719-48.910157 4.410156-82.089844 6.449218-34.742187 18.667968-66.601563 36.296875-94.671875 15.523437-24.730469 35.261719-46.488281 58.890625-64.988281 9.972656-7.820313 20.621094-15.050781 31.960937-21.679688l20.410157-11.941406 2.101562 23.5625c.949219 10.589844 1.398438 21.027344 1.839844 31.128906 1.117187 25.589844 2.167968 49.757813 10.867187 73.390625 9.882813 26.867188 26.402344 53.148438 51.972657 82.730469l3.898437 4.519531c35.429687 40.910156 72.058594 83.207032 78.980469 142.128906.519531 4.429688.800781 9.089844.839844 13.828126zm0 0" fill="#ffdc2e"/><g fill="#f90"><path d="m109.621094 0h29.402344v29.402344h-29.402344zm0 0"/><path d="m109.621094 62.945312h29.402344v29.402344h-29.402344zm0 0"/><path d="m78.148438 60.875v-29.402344h29.398437v29.402344zm0 0"/><path d="m141.09375 60.875v-29.402344h29.402344v29.402344zm0 0"/><path d="m31.972656 118.210938h29.402344v29.402343h-29.402344zm0 0"/><path d="m31.972656 181.160156h29.402344v29.398438h-29.402344zm0 0"/><path d="m.5 179.085938v-29.402344h29.402344v29.402344zm0 0"/><path d="m63.449219 179.085938v-29.402344h29.398437v29.402344zm0 0"/></g><path d="m393.179688 62.023438h29.398437v29.402343h-29.398437zm0 0" fill="#e57500"/><path d="m393.179688 124.972656h29.398437v29.398438h-29.398437zm0 0" fill="#e57500"/><path d="m361.707031 122.898438v-29.402344h29.398438v29.402344zm0 0" fill="#e57500"/><path d="m424.652344 122.898438v-29.402344h29.402344v29.402344zm0 0" fill="#e57500"/><path d="m450.617188 371.898438c.320312 37.03125-13.960938 71.992187-40.199219 98.460937-26.628907 26.851563-62.128907 41.640625-99.960938 41.640625h-62.710937v-477.769531c9.972656-7.820313 20.621094-15.050781 31.960937-21.679688l20.410157-11.941406 2.101562 23.5625c.949219 10.589844 1.398438 21.027344 1.839844 31.128906 1.117187 25.589844 2.167968 49.757813 10.867187 73.390625 9.882813 26.867188 26.402344 53.148438 51.972657 82.730469l3.898437 4.519531c35.429687 40.910156 72.058594 83.207032 78.980469 142.128906.519531 4.429688.800781 9.089844.839844 13.828126zm0 0" fill="#ffbf02"/><path d="m364.546875 433.871094c.308594 20.539062-7.519531 39.980468-22.070313 54.75-14.847656 15.078125-34.6875 23.378906-55.859374 23.378906h-57.328126c-25.980468 0-50.050781-12.730469-64.410156-34.058594-13.5-20.0625-26.472656-53.960937-11.582031-101.613281l4.660156-14.898437 39.941407 14.261718c-.070313-9 .570312-19.863281 2.75-31.621094 6.179687-33.199218 22.300781-61.058593 47.097656-81.71875 6.160156-5.140624 12.851562-9.832031 20.0625-14.050781l20.417968-11.941406 2.101563 23.5625c.488281 5.457031.71875 10.769531.9375 15.898437.53125 12.199219 1.03125 23.71875 4.980469 34.441407 4.621094 12.558593 12.453125 24.957031 24.621094 39.046875l1.949218 2.25c17.589844 20.320312 37.539063 43.351562 41.269532 75.101562.269531 2.328125.421874 4.75.460937 7.210938zm0 0" fill="#f90"/><path d="m364.546875 433.871094c.308594 20.539062-7.519531 39.980468-22.070313 54.75-14.847656 15.078125-34.6875 23.378906-55.859374 23.378906h-38.871094v-249.648438c6.160156-5.140624 12.851562-9.832031 20.0625-14.050781l20.417968-11.941406 2.101563 23.5625c.488281 5.457031.71875 10.769531.9375 15.898437.53125 12.199219 1.03125 23.71875 4.980469 34.441407 4.621094 12.558593 12.453125 24.957031 24.621094 39.046875l1.949218 2.25c17.589844 20.320312 37.539063 43.351562 41.269532 75.101562.269531 2.328125.421874 4.75.460937 7.210938zm0 0" fill="#e57500"/></svg>