<?xml version="1.0" ?><!DOCTYPE svg  PUBLIC '-//W3C//DTD SVG 1.1//EN'  'http://www.w3.org/Graphics/SVG/1.1/DTD/svg11.dtd'><svg enable-background="new 0 0 512 512" id="Layer_1" version="1.1" viewBox="0 0 512 512" xml:space="preserve" xmlns="http://www.w3.org/2000/svg" xmlns:xlink="http://www.w3.org/1999/xlink"><circle cx="256" cy="256" fill="orange" id="ellipse" r="256"/><g id="logo"><path d="M256,96c-88.2,0-160,71.8-160,160c0,85.6,66.9,155.8,152.4,159.8c30,1.4,59.3-5.5,85-19.8   c-49,14.5-100.9-3.4-133.7-46l0,0c0,0,0,0,0,0c-22.6-26.6-31.2-61.8-31.2-97.9c0.8-34.8,12.2-67.7,31.3-90.3   c33.2-43.1,85.5-60.2,133.6-45.9c-23.3-12.9-49.7-19.9-76.8-20" fill="black"/><path d="M362.8,136.9c-37.3-24.7-84.4-26.2-123.7-2c-0.1,0.1-0.3,0.2-0.4,0.3   C294.9,118.3,347.1,178,347.1,256c0,77.8-52.1,137.7-108.3,120.8c39.3,24.4,86.8,23.1,124.2-1.8l0,0c33.5-30.1,52.9-73.6,52.9-119   C416,210.6,396.6,167.3,362.8,136.9z" fill="black" opacity="0.85"/></g></svg>