<svg id="Capa_1" enable-background="new 0 0 512 512" height="512" viewBox="0 0 512 512" width="512" xmlns="http://www.w3.org/2000/svg"><g><g id="Unite_2_"><g><path d="m497 512h-301c-8.291 0-15-6.709-15-15v-166h-166c-8.291 0-15-6.709-15-15v-301c0-8.291 6.709-15 15-15h301c8.291 0 15 6.709 15 15v166h166c8.291 0 15 6.709 15 15v301c0 8.291-6.709 15-15 15z" fill="orange"/></g></g><path d="m497 181h-166v-166c0-8.291-6.709-15-15-15h-301c-4.15 0-7.904 1.682-10.618 4.401l503.218 503.217c2.718-2.714 4.4-6.468 4.4-10.618v-301c0-8.291-6.709-15-15-15z" fill="#B8860B"/></g></svg>